<svg
              xmlns="http://www.w3.org/2000/svg"
              width="151"
              height="42"
              viewBox="0 0 151 42"
              fill="none"
            >
              <rect
                x="0.5"
                y="0.5"
                width="150"
                height="41"
                rx="3.5"
                fill="#FFDBC0"
                fill-opacity="0.2"
                stroke="white"
                stroke-linejoin="round"
              />
              <path
                d="M49.4258 21.7598H45.7734L45.7539 19.748H48.8203C49.3607 19.748 49.8034 19.6797 50.1484 19.543C50.4935 19.3997 50.7507 19.1947 50.9199 18.9277C51.0957 18.6543 51.1836 18.3223 51.1836 17.9316C51.1836 17.4889 51.099 17.1309 50.9297 16.8574C50.7669 16.584 50.5098 16.3854 50.1582 16.2617C49.8132 16.138 49.3672 16.0762 48.8203 16.0762H46.7891V28H43.8594V13.7812H48.8203C49.6471 13.7812 50.3861 13.8594 51.0371 14.0156C51.6947 14.1719 52.2513 14.4095 52.707 14.7285C53.1628 15.0475 53.5111 15.4512 53.752 15.9395C53.9928 16.4212 54.1133 16.9941 54.1133 17.6582C54.1133 18.2441 53.9798 18.7845 53.7129 19.2793C53.4525 19.7741 53.0391 20.1777 52.4727 20.4902C51.9128 20.8027 51.1803 20.9753 50.2754 21.0078L49.4258 21.7598ZM49.2988 28H44.9727L46.1152 25.7148H49.2988C49.8132 25.7148 50.2331 25.6335 50.5586 25.4707C50.8841 25.3014 51.125 25.0736 51.2812 24.7871C51.4375 24.5007 51.5156 24.1719 51.5156 23.8008C51.5156 23.3841 51.444 23.0228 51.3008 22.7168C51.1641 22.4108 50.9427 22.1764 50.6367 22.0137C50.3307 21.8444 49.9271 21.7598 49.4258 21.7598H46.6035L46.623 19.748H50.1387L50.8125 20.5391C51.6784 20.526 52.375 20.679 52.9023 20.998C53.4362 21.3105 53.8236 21.7174 54.0645 22.2188C54.3118 22.7201 54.4355 23.2572 54.4355 23.8301C54.4355 24.7415 54.237 25.5098 53.8398 26.1348C53.4427 26.7533 52.86 27.2188 52.0918 27.5312C51.3301 27.8438 50.3991 28 49.2988 28ZM58.7227 17.4336L60.4707 20.6465L62.2676 17.4336H65.2656L62.2773 22.5996L65.4023 28H62.3945L60.4902 24.6016L58.5859 28H55.5781L58.7031 22.5996L55.7148 17.4336H58.7227ZM65.8516 22.8242V22.6191C65.8516 21.8444 65.9622 21.1315 66.1836 20.4805C66.4049 19.8229 66.7272 19.2533 67.1504 18.7715C67.5736 18.2897 68.0944 17.9154 68.7129 17.6484C69.3314 17.375 70.041 17.2383 70.8418 17.2383C71.6426 17.2383 72.3555 17.375 72.9805 17.6484C73.6055 17.9154 74.1296 18.2897 74.5527 18.7715C74.9824 19.2533 75.3079 19.8229 75.5293 20.4805C75.7507 21.1315 75.8613 21.8444 75.8613 22.6191V22.8242C75.8613 23.5924 75.7507 24.3053 75.5293 24.9629C75.3079 25.6139 74.9824 26.1836 74.5527 26.6719C74.1296 27.1536 73.6087 27.528 72.9902 27.7949C72.3717 28.0618 71.6621 28.1953 70.8613 28.1953C70.0605 28.1953 69.3477 28.0618 68.7227 27.7949C68.1042 27.528 67.5801 27.1536 67.1504 26.6719C66.7272 26.1836 66.4049 25.6139 66.1836 24.9629C65.9622 24.3053 65.8516 23.5924 65.8516 22.8242ZM68.6641 22.6191V22.8242C68.6641 23.2669 68.7031 23.6803 68.7812 24.0645C68.8594 24.4486 68.9831 24.7871 69.1523 25.0801C69.3281 25.3665 69.556 25.5911 69.8359 25.7539C70.1159 25.9167 70.4577 25.998 70.8613 25.998C71.252 25.998 71.5872 25.9167 71.8672 25.7539C72.1471 25.5911 72.3717 25.3665 72.541 25.0801C72.7103 24.7871 72.834 24.4486 72.9121 24.0645C72.9967 23.6803 73.0391 23.2669 73.0391 22.8242V22.6191C73.0391 22.1895 72.9967 21.7858 72.9121 21.4082C72.834 21.0241 72.707 20.6855 72.5312 20.3926C72.362 20.0931 72.1374 19.8587 71.8574 19.6895C71.5775 19.5202 71.2389 19.4355 70.8418 19.4355C70.4447 19.4355 70.1061 19.5202 69.8262 19.6895C69.5527 19.8587 69.3281 20.0931 69.1523 20.3926C68.9831 20.6855 68.8594 21.0241 68.7812 21.4082C68.7031 21.7858 68.6641 22.1895 68.6641 22.6191ZM78.791 17.4336H81.6035L81.5156 20.9688C81.4896 22.1016 81.3594 23.0749 81.125 23.8887C80.8906 24.7025 80.5781 25.3861 80.1875 25.9395C79.7969 26.4928 79.3509 26.9355 78.8496 27.2676C78.3548 27.5931 77.834 27.8372 77.2871 28H76.7598L76.7305 25.832L77.0234 25.8027C77.3555 25.4577 77.6289 25.1224 77.8438 24.7969C78.0586 24.4648 78.2246 24.1165 78.3418 23.752C78.459 23.3874 78.5436 22.9805 78.5957 22.5312C78.6543 22.082 78.6901 21.5612 78.7031 20.9688L78.791 17.4336ZM79.5527 17.4336H86.5547V28H83.752V19.6895H79.5527V17.4336ZM76.1152 25.8027H88.0684V31.1738H85.2559V28H78.9961V31.1738H76.1152V25.8027Z"
                fill="white"
              />
              <path
                d="M139.022 32.6667C139.022 28.1517 134.53 24.5 129 24.5C123.47 24.5 118.978 28.1517 118.978 32.6667M129 21C130.547 21 132.031 20.3854 133.125 19.2915C134.219 18.1975 134.833 16.7138 134.833 15.1667C134.833 13.6196 134.219 12.1358 133.125 11.0419C132.031 9.94792 130.547 9.33334 129 9.33334C127.453 9.33334 125.969 9.94792 124.875 11.0419C123.781 12.1358 123.167 13.6196 123.167 15.1667C123.167 16.7138 123.781 18.1975 124.875 19.2915C125.969 20.3854 127.453 21 129 21V21Z"
                stroke="white"
                stroke-width="1.5"
                stroke-linecap="round"
                stroke-linejoin="round"
              />
            </svg>