<?xml version="1.0" standalone="no"?>
<!DOCTYPE svg PUBLIC "-//W3C//DTD SVG 20010904//EN"
 "http://www.w3.org/TR/2001/REC-SVG-20010904/DTD/svg10.dtd">
<svg version="1.0" xmlns="http://www.w3.org/2000/svg"
 width="2500.000000pt" height="1000.000000pt" viewBox="0 750 2500 1000"
 preserveAspectRatio="xMidYMid meet">

<g transform="translate(0.000000,2500.000000) scale(0.100000,-0.100000)"
fill="#ffffff" stroke="none">
<path d="M0 12500 l0 -12500 12500 0 12500 0 0 12500 0 12500 -12500 0 -12500
0 0 -12500z m24990 0 l0 -12490 -12490 0 -12490 0 0 12490 0 12490 12490 0
12490 0 0 -12490z"/>
<path d="M6240 16079 c-25 -5 -79 -25 -120 -45 -128 -63 -229 -187 -266 -327
-21 -78 -21 -6336 0 -6414 59 -223 266 -383 496 -383 222 0 422 146 492 359
20 60 22 90 25 346 2 154 3 286 3 293 0 9 109 12 510 12 l510 0 0 -287 c0
-213 4 -302 14 -340 72 -270 354 -437 620 -368 176 46 300 161 364 337 l27 73
0 585 c0 539 -1 590 -18 645 -62 200 -227 347 -422 375 -42 6 -380 10 -837 10
l-768 0 -2 2353 c-3 2221 -4 2355 -21 2411 -26 88 -65 153 -132 222 -122 124
-298 177 -475 143z"/>
<path d="M8271 16074 c-175 -47 -320 -193 -367 -367 -11 -43 -14 -364 -14
-1932 0 -2059 -3 -1934 58 -2049 35 -67 145 -177 207 -208 124 -63 110 -62
705 -65 300 -2 548 -4 553 -6 4 -1 8 -477 10 -1057 3 -1158 -1 -1092 63 -1211
40 -75 146 -180 216 -212 290 -137 600 -15 720 281 l23 57 5 1073 5 1072 2035
0 c1119 0 2041 0 2048 0 9 0 12 -216 12 -1048 0 -909 2 -1056 15 -1107 48
-182 195 -327 376 -370 123 -29 242 -14 359 43 69 34 179 141 212 207 61 119
58 61 58 1216 l1 1057 557 4 c608 5 595 4 717 66 62 31 172 141 207 208 62
115 58 -10 58 2049 0 1241 -4 1895 -11 1924 -40 176 -193 328 -376 376 -85 22
-8369 21 -8452 -1z m7809 -2299 c0 -704 0 -1283 0 -1287 0 -5 -1611 -8 -3580
-8 -2857 0 -3580 3 -3580 13 0 6 0 584 0 1282 0 699 0 1273 0 1278 0 4 1611 6
3580 5 l3581 -3 -1 -1280z"/>
<path d="M18523 16075 c-173 -47 -308 -174 -366 -344 l-22 -66 -3 -2354 c-1
-1295 -4 -2356 -6 -2358 -2 -2 -350 -3 -773 -3 -841 0 -865 -1 -980 -57 -77
-37 -182 -138 -221 -210 -68 -130 -67 -116 -67 -758 l0 -580 24 -74 c122 -373
582 -483 856 -206 33 34 73 87 89 119 52 105 56 137 56 449 l0 287 510 -2 510
-3 3 -290 c3 -268 5 -295 25 -356 56 -170 195 -299 369 -344 217 -57 472 56
571 251 68 134 62 -165 62 3325 0 3130 0 3157 -20 3222 -28 92 -65 154 -130
217 -128 126 -321 179 -487 135z"/>
</g>
</svg>
