<svg id="Слой_1" data-name="Слой 1" xmlns="http://www.w3.org/2000/svg" viewBox="0 0 841.9 127.3" width="400" height="80">
    <defs>
        <style>.cls-1{fill:none;}.cls-2{isolation:isolate;}.cls-3{fill:#bd916c;}</style>
    </defs>
    <title>КРИТИКА</title>
    <rect class="cls-1" x="77.53" y="24.02" width="939.16" height="334.74"/>
    <g class="cls-2">
        <path class="cls-3"
              d="M94.18,61.11l36.31-39.86h9.56L113.34,50.51,142.61,91.9h-9.12L108.27,56.08,94.18,71.21V91.9H86.59V21.25h7.59Z"/>
        <path class="cls-3"
              d="M154.18,21.25h26.76a22.2,22.2,0,0,1,16.25,6.36,21.28,21.28,0,0,1,6.46,15.84,21.35,21.35,0,0,1-6.48,15.86,22.21,22.21,0,0,1-16.23,6.38H161.77V91.9h-7.59Zm26.76,7.1H161.77V58.59h19.17q6.84,0,11-4.13t4.14-11q0-6.84-4.14-11T180.94,28.35Z"/>
        <path class="cls-3" d="M277.25,91.9h-7.54v-57l-43.4,57h-6.55V21.25h7.58V78.3l43.36-57h6.55Z"/>
        <path class="cls-3" d="M289.86,21.25h52v7.1H319.62V91.9h-7.54V28.35H289.86Z"/>
        <path class="cls-3" d="M411.89,91.9h-7.54v-57L361,91.9H354.4V21.25H362V78.3l43.36-57h6.55Z"/>
        <path class="cls-3"
              d="M440.66,61.11,477,21.25h9.56l-26.7,29.26L489.09,91.9H480L454.75,56.08,440.66,71.21V91.9h-7.59V21.25h7.59Z"/>
        <path class="cls-3"
              d="M542.05,72.24H508.74L500.67,91.9h-8.08l29.26-70.65h7L558.16,91.9h-8ZM539,65.15,525.4,31.84,511.75,65.15Z"/>
        <path class="cls-3"
              d="M571.77,93c-3.43,0-5.85-2.73-5.85-6.36A6,6,0,0,1,572,80.3c3.53,0,5.95,2.62,5.95,6.35s-2.42,6.36-6,6.36Z"/>
    </g>
    <line class="cls-1" x1="15.24" y1="108.04" x2="828.48" y2="107.1"/>
    <path class="cls-3"
          d="M16.62,111.11c7.22,0,14.45.09,22-.14,19.74-.16,39.2,0,58.94-.21,29.2-.1,58.67-.2,87.86,0l106.49-.2,117.33-.13,117.6-.12,110.38-.17c30.86-.1,61.72-.19,92.58,0,22.25-.15,44.77,0,67-.16,10.56.07,21.13.13,31.69-.08h1.39c3.62,0,0-5.84-2.74-5.86-7.23,0-14.46-.09-22,.15-19.74.16-39.2,0-58.94.2-29.19.1-58.66.2-87.86,0l-106.48.19-117.33.13-117.61.12L206.55,105c-30.87.1-61.73.19-92.59,0-22.24.15-44.76,0-67,.16-10.57-.07-21.13-.13-31.7.08H13.87c-3.61,0,0,5.83,2.75,5.85Z"/>
</svg>